<?xml version="1.0" encoding="UTF-8"?>
<svg xmlns="http://www.w3.org/2000/svg" width="512" height="512" viewBox="0 0 128 128"><g><path d="M58.03,66.314l8.282-8.283a1.748,1.748,0,0,0,0-2.474L61.9,51.145a26.638,26.638,0,0,0,2.169-5.232h6.236a1.75,1.75,0,0,0,1.75-1.75V32.451a1.75,1.75,0,0,0-1.75-1.75H64.083a26.431,26.431,0,0,0-2.176-5.237l4.405-4.406a1.749,1.749,0,0,0,0-2.475L58.03,10.3a1.748,1.748,0,0,0-2.474,0L51.15,14.707a26.431,26.431,0,0,0-5.237-2.176V6.307a1.749,1.749,0,0,0-1.75-1.75H32.45a1.749,1.749,0,0,0-1.75,1.75v6.235a26.669,26.669,0,0,0-5.231,2.17L21.058,10.3a1.749,1.749,0,0,0-2.475,0L10.3,18.583a1.749,1.749,0,0,0,0,2.475l4.41,4.411a26.688,26.688,0,0,0-2.17,5.232H6.307a1.749,1.749,0,0,0-1.75,1.75V44.163a1.749,1.749,0,0,0,1.75,1.75H12.53a26.424,26.424,0,0,0,2.177,5.237L10.3,55.557a1.748,1.748,0,0,0,0,2.474l8.281,8.283a1.752,1.752,0,0,0,2.475,0l4.406-4.407A26.486,26.486,0,0,0,30.7,64.084v6.224a1.75,1.75,0,0,0,1.75,1.75H44.163a1.75,1.75,0,0,0,1.75-1.75V64.072a26.669,26.669,0,0,0,5.231-2.17l4.412,4.412a1.75,1.75,0,0,0,2.474,0Zm-5.361-7.837a1.748,1.748,0,0,0-2.153-.254,23.168,23.168,0,0,1-6.76,2.8,1.752,1.752,0,0,0-1.343,1.7v5.83H34.2V62.739a1.75,1.75,0,0,0-1.345-1.7A23.02,23.02,0,0,1,26.1,58.228a1.751,1.751,0,0,0-2.157.252L19.82,62.6l-5.806-5.808,4.12-4.121a1.751,1.751,0,0,0,.252-2.156,23.007,23.007,0,0,1-2.809-6.759,1.75,1.75,0,0,0-1.7-1.345H8.057V34.2h5.829a1.751,1.751,0,0,0,1.7-1.343,23.118,23.118,0,0,1,2.8-6.758,1.753,1.753,0,0,0-.254-2.155L14.014,19.82l5.806-5.806,4.124,4.124a1.751,1.751,0,0,0,2.154.254,23.164,23.164,0,0,1,6.759-2.8,1.752,1.752,0,0,0,1.343-1.7V8.057h8.213v5.819a1.75,1.75,0,0,0,1.345,1.7,23.014,23.014,0,0,1,6.759,2.808,1.746,1.746,0,0,0,2.156-.252l4.12-4.12L62.6,19.82,58.48,23.941a1.753,1.753,0,0,0-.252,2.157,22.981,22.981,0,0,1,2.808,6.758,1.75,1.75,0,0,0,1.7,1.345h5.819v8.212h-5.83a1.752,1.752,0,0,0-1.7,1.344,23.155,23.155,0,0,1-2.8,6.759,1.748,1.748,0,0,0,.254,2.153L62.6,56.794,56.793,62.6Z"/><path d="M38.307,23.158A15.149,15.149,0,1,0,53.456,38.307,15.166,15.166,0,0,0,38.307,23.158Zm0,26.8A11.649,11.649,0,1,1,49.956,38.307,11.663,11.663,0,0,1,38.307,49.956Z"/><path d="M121.693,82.087h-6.224a26.421,26.421,0,0,0-2.176-5.237l4.406-4.407a1.748,1.748,0,0,0,0-2.474l-8.282-8.281a1.749,1.749,0,0,0-2.475,0l-4.406,4.405A26.494,26.494,0,0,0,97.3,63.916V57.692a1.75,1.75,0,0,0-1.75-1.75H83.837a1.75,1.75,0,0,0-1.75,1.75v6.236a26.652,26.652,0,0,0-5.232,2.17l-4.411-4.41a1.748,1.748,0,0,0-2.474,0l-8.283,8.281a1.75,1.75,0,0,0,0,2.474L66.1,76.855a26.578,26.578,0,0,0-2.169,5.232H57.693a1.75,1.75,0,0,0-1.75,1.75V95.549a1.75,1.75,0,0,0,1.75,1.75h6.224a26.431,26.431,0,0,0,2.176,5.237l-4.406,4.406a1.751,1.751,0,0,0,0,2.475L69.97,117.7a1.748,1.748,0,0,0,2.474,0l4.406-4.4a26.406,26.406,0,0,0,5.237,2.176v6.224a1.749,1.749,0,0,0,1.75,1.75H95.549a1.749,1.749,0,0,0,1.75-1.75v-6.235a26.645,26.645,0,0,0,5.232-2.171l4.411,4.411a1.749,1.749,0,0,0,2.475,0l8.282-8.281a1.749,1.749,0,0,0,0-2.475l-4.411-4.412a26.669,26.669,0,0,0,2.17-5.231h6.235a1.749,1.749,0,0,0,1.75-1.75V83.837A1.749,1.749,0,0,0,121.693,82.087ZM119.943,93.8h-5.829a1.751,1.751,0,0,0-1.7,1.343,23.164,23.164,0,0,1-2.8,6.759,1.752,1.752,0,0,0,.254,2.154l4.125,4.125-5.807,5.806-4.124-4.124a1.754,1.754,0,0,0-2.154-.254,23.181,23.181,0,0,1-6.76,2.8,1.751,1.751,0,0,0-1.343,1.7v5.829H85.587v-5.819a1.75,1.75,0,0,0-1.345-1.7,23.014,23.014,0,0,1-6.759-2.808,1.747,1.747,0,0,0-2.156.252l-4.12,4.12L65.4,108.18l4.12-4.121a1.75,1.75,0,0,0,.252-2.157,23.005,23.005,0,0,1-2.807-6.758,1.75,1.75,0,0,0-1.7-1.345H59.443V85.587h5.829a1.752,1.752,0,0,0,1.7-1.344,23.155,23.155,0,0,1,2.8-6.759,1.748,1.748,0,0,0-.254-2.153L65.4,71.206,71.207,65.4l4.124,4.124a1.746,1.746,0,0,0,2.153.254,23.168,23.168,0,0,1,6.76-2.8,1.752,1.752,0,0,0,1.343-1.7v-5.83H93.8v5.819a1.75,1.75,0,0,0,1.345,1.7,23.026,23.026,0,0,1,6.758,2.809,1.748,1.748,0,0,0,2.157-.252L108.18,65.4l5.807,5.807-4.121,4.121a1.75,1.75,0,0,0-.252,2.156,22.992,22.992,0,0,1,2.807,6.758,1.75,1.75,0,0,0,1.7,1.346h5.819Z"/><path d="M89.693,74.544a15.149,15.149,0,1,0,15.149,15.149A15.166,15.166,0,0,0,89.693,74.544Zm0,26.8a11.649,11.649,0,1,1,11.649-11.649A11.662,11.662,0,0,1,89.693,101.342Z"/><path d="M76.711,20.857A44.9,44.9,0,0,1,101.5,39.189a7.7,7.7,0,1,0,3.069-1.7A48.388,48.388,0,0,0,77.7,17.5a1.75,1.75,0,1,0-.988,3.357ZM110.8,44.874a4.172,4.172,0,1,1-4.172-4.172A4.176,4.176,0,0,1,110.8,44.874Z"/><path d="M51.289,107.143A44.9,44.9,0,0,1,26.505,88.811a7.7,7.7,0,1,0-3.069,1.7A48.385,48.385,0,0,0,50.3,110.5a1.732,1.732,0,0,0,.495.071,1.75,1.75,0,0,0,.493-3.428ZM17.2,83.126A4.172,4.172,0,1,1,21.372,87.3,4.176,4.176,0,0,1,17.2,83.126Z"/></g></svg>
